PathFileType	4	(X/Y/Z)	C:\Users\WrightLab\Desktop\Jo\P2_Trial28.trc
DataRate	CameraRate	NumFrames	NumMarkers	Units	OrigDataRate	OrigDataStartFrame	OrigNumFrames
100.00	100.00	       29	19	mm	100.00	60	       472
Frame#	Time	Headset_Front			Headset_Back			Headset_Left			Headset_Right			Left_Shoulder			Right_Shoulder			Sternum			C7			Left Elbow			Right Elbow			Left Wrist			Right Wrist			Left ASIS			Right ASIS			S2			Left Knee			Right Knee			Left Ankle			Right Ankle			
		X1	Y1	Z1	X2	Y2	Z2	X3	Y3	Z3	X4	Y4	Z4	X5	Y5	Z5	X6	Y6	Z6	X7	Y7	Z7	X8	Y8	Z8	X9	Y9	Z9	X10	Y10	Z10	X11	Y11	Z11	X12	Y12	Z12	X13	Y13	Z13	X14	Y14	Z14	X15	Y15	Z15	X16	Y16	Z16	X17	Y17	Z17	X18	Y18	Z18	X19	Y19	Z19	

60	0.590				-677.70428	512.67438	-1422.47559																			-189.00999	1085.81262	-1295.82837							-779.62030	867.65399	-1384.70789	-430.31631	1013.41406	-1248.35925	-562.53992	1010.60071	-1278.43835				-309.29355	421.94928	-1278.56433	-648.62494	72.71358	-1431.62781	-183.45813	145.19028	-1417.09424				
61	0.600				-682.65411	510.85748	-1428.64014																			-193.59601	1086.38293	-1292.32495							-785.12573	868.39148	-1380.08447	-435.02621	1014.01312	-1243.39246	-567.01587	1009.79468	-1279.96606				-315.57193	424.93542	-1264.21863	-649.40106	72.23930	-1431.13525	-194.83093	149.09695	-1406.58142				
62	0.610				-686.69702	514.20746	-1421.56543																			-198.05998	1086.69641	-1288.60901							-790.74286	868.70837	-1374.83423	-439.35001	1015.41791	-1235.84741	-570.85394	1009.68213	-1277.99463	-432.08044	920.29388	-1505.27405	-322.44730	428.20532	-1248.44189	-650.15613	71.48217	-1430.95251	-206.88144	153.30719	-1394.75220				
63	0.620				-688.92059	511.15277	-1431.17798																			-203.23068	1086.94800	-1284.25232				-160.17345	847.48706	-1271.80542	-795.99158	869.18646	-1369.67188	-442.74503	1016.27838	-1231.82935	-574.63531	1010.28052	-1270.87451	-434.43176	920.59662	-1500.21313	-328.49197	431.53394	-1234.85620	-651.50391	71.13730	-1431.35913	-218.62386	154.53534	-1382.05408				
64	0.630				-692.32990	510.97949	-1436.75928																			-206.99481	1086.75244	-1282.56555				-165.74359	848.03705	-1270.47876	-801.15192	870.08405	-1365.83081	-446.24857	1017.10889	-1225.06287	-579.49121	1011.32770	-1264.60339	-436.77591	920.93091	-1495.32141	-334.50015	434.11624	-1220.53809	-654.60724	72.50898	-1425.73108	-230.09482	157.59123	-1369.78931				
65	0.640				-694.17920	513.29443	-1429.26331																			-212.00546	1086.94067	-1279.36292				-170.70284	848.31757	-1268.06067	-806.43677	869.90027	-1359.51416	-450.50455	1017.37469	-1220.09851	-582.10168	1010.80359	-1265.28442	-439.18243	921.09589	-1490.05029	-340.48660	437.33936	-1205.31665	-656.07397	71.25706	-1425.12439	-241.74016	159.24434	-1356.65662				
66	0.650				-696.03467	512.82184	-1430.91333																			-216.82825	1087.11414	-1275.90344				-176.05540	848.72632	-1266.37659	-811.86829	870.10919	-1353.55884	-453.74438	1017.70349	-1215.89758	-585.57092	1011.55389	-1254.14563	-441.61597	921.22980	-1484.75732	-346.30319	438.83954	-1189.12378	-657.27716	69.16075	-1426.73975	-254.13080	160.07590	-1341.15125				
67	0.660				-698.04333	509.63284	-1438.22327																			-221.21373	1087.37170	-1273.09778				-179.98302	847.32220	-1264.72998	-816.66681	870.75507	-1349.21399	-456.90125	1018.60291	-1207.38525	-589.39069	1011.95221	-1246.89355	-444.16577	921.25067	-1479.48279	-350.75290	441.36246	-1174.47351	-659.23126	70.06993	-1422.47583	-265.48169	160.79190	-1327.22986				
68	0.670				-700.28119	509.91296	-1436.64282																			-225.60446	1086.81873	-1271.45154				-184.91531	846.84412	-1263.71289	-821.46552	870.72949	-1343.41467	-460.97156	1019.97906	-1204.90906	-592.25537	1010.07928	-1249.67456	-446.64453	921.57489	-1474.49561	-356.09549	441.30865	-1158.27759	-661.58868	70.99258	-1416.55701	-278.57355	160.84140	-1309.12195				
69	0.680				-700.29712	511.42236	-1438.99963							-498.28934	1315.19580	-1171.37146										-229.32748	1086.26819	-1268.82654				-190.37045	846.89435	-1262.99109	-826.53369	870.37036	-1337.17603	-464.01718	1019.61481	-1203.02161	-594.70386	1012.15887	-1237.59778	-449.21466	921.27130	-1468.51184	-360.75870	443.91388	-1143.42517	-662.20270	69.23859	-1418.25513	-289.41345	160.90736	-1294.94971				
70	0.690				-700.23212	511.47900	-1438.71130							-502.11734	1314.61877	-1164.35889										-233.74214	1085.41455	-1266.34778				-195.01337	846.51428	-1260.95496	-830.88806	870.56763	-1332.44800	-466.27588	1019.58374	-1196.37561	-597.76984	1010.00391	-1238.43726	-451.86197	921.15234	-1463.31323	-365.87012	445.75012	-1128.91333	-664.30048	68.99377	-1414.21521	-300.62457	160.96971	-1277.23499				
71	0.700	-615.35120	1517.72119	-1135.09802	-699.42596	510.39563	-1439.20166							-506.94580	1314.12183	-1156.26453	-389.15872	1468.12061	-947.79376							-237.60710	1083.62903	-1263.74011				-198.56493	844.32452	-1259.81860	-835.21295	869.68463	-1326.77112	-469.05878	1018.94177	-1190.64124	-599.87006	1010.29431	-1232.83582	-454.57074	920.94360	-1457.91064	-371.48740	447.77515	-1113.60864	-666.22028	68.04099	-1414.71912	-311.64667	159.12128	-1259.49060				
72	0.710	-617.84973	1515.46716	-1127.38574																						-240.98949	1083.29211	-1259.77039				-203.73213	843.62445	-1259.87134	-839.38226	869.68738	-1321.86877	-470.79657	1020.06091	-1183.91223	-602.20435	1010.96680	-1217.20801	-457.28976	920.47943	-1452.14819	-376.85025	448.97964	-1097.76990	-668.30164	68.28924	-1412.77368	-322.88593	157.79398	-1240.02917				
73	0.720	-620.22784	1513.43921	-1119.38562																						-245.12808	1082.22021	-1257.65161				-208.30006	842.93927	-1258.19092	-843.88660	868.58118	-1315.11780	-474.37488	1020.08905	-1179.47559	-604.71954	1010.00897	-1216.65674	-459.96051	920.25311	-1446.57031	-382.24374	452.02490	-1083.31702	-669.79205	67.73075	-1410.97632	-333.19955	154.80952	-1222.18774				
74	0.730	-622.59357	1511.20020	-1110.43079																						-248.50108	1080.63367	-1255.67175				-211.54977	840.35980	-1256.95630	-848.70349	867.75610	-1308.64111	-475.37402	1020.02722	-1170.33533	-607.93134	1009.16583	-1211.58484	-462.62115	919.50751	-1440.77783	-387.23172	455.32043	-1067.92102	-671.39337	68.52097	-1407.71631	-344.26794	151.84521	-1201.68188				
75	0.740	-624.89484	1508.89563	-1101.75366	-522.15991	1311.90710	-1129.69836				-528.50153	1409.69727	-1034.80457	-792.89465	1103.10938	-1371.08313										-252.58879	1080.10657	-1249.74048				-216.11246	839.67462	-1255.26318	-853.28204	866.86853	-1301.68506	-479.10635	1019.86182	-1166.15991	-609.32629	1005.57922	-1209.82019	-465.15875	918.26886	-1433.76160	-392.16391	459.73657	-1055.02429	-672.84485	67.36575	-1405.03369	-354.68243	146.92468	-1180.83032				
76	0.750	-627.10449	1507.17737	-1093.04712	-525.77179	1311.39038	-1123.56079				-530.64490	1407.08228	-1028.55383	-796.95636	1101.39807	-1361.75830										-254.82909	1078.37720	-1249.19751				-219.59229	838.64124	-1255.28271	-857.74188	865.87433	-1294.44153	-481.16599	1018.62012	-1159.28333	-612.53699	1006.05743	-1195.98657	-467.56012	917.66284	-1427.94604	-397.42542	464.46228	-1045.08289	-673.71814	67.79752	-1403.36658	-365.18640	144.34689	-1160.11230				
77	0.760	-629.40771	1504.84570	-1084.16406	-683.39490	1406.09192	-1277.33044				-534.08228	1404.60999	-1025.43372	-800.78949	1100.56165	-1354.54480				-540.67273	1291.54272	-1190.44458				-258.90369	1077.03687	-1244.17554				-223.31601	836.08661	-1251.46289	-864.56036	860.88043	-1297.38123	-483.76645	1018.19672	-1152.65161	-614.57990	1004.71777	-1191.70703	-469.90158	916.44250	-1421.00171	-404.03400	466.04388	-1034.54602	-674.55103	66.73969	-1403.47241	-375.39240	139.83003	-1139.14392				
78	0.770	-631.74414	1502.46167	-1075.75330							-534.89429	1402.64417	-1015.68524	-804.13593	1099.86304	-1347.88818				-543.64215	1290.70837	-1182.90613				-262.06766	1075.38550	-1241.91260				-227.48137	835.13013	-1249.14844	-866.64557	864.67212	-1281.69568	-486.47006	1016.40118	-1147.95178	-617.93616	1002.22101	-1187.96887	-472.08160	915.26617	-1414.43982	-409.20667	467.08899	-1023.97009	-676.61755	67.01850	-1399.63953	-385.90195	134.43709	-1115.54663				
79	0.780	-634.06818	1499.83081	-1066.94800	-689.84705	1403.84668	-1262.81824				-535.15399	1400.27686	-1007.38037	-807.84784	1096.93884	-1336.38354				-546.32104	1288.38464	-1175.66125				-264.86523	1073.46204	-1237.79211				-229.52513	834.82635	-1250.10974	-871.64069	862.63416	-1272.05139	-488.28107	1015.51611	-1136.49902	-619.71716	1002.99792	-1176.96655	-473.92563	914.30273	-1407.59375	-414.38275	467.64209	-1015.30408	-678.06561	64.21228	-1399.75269	-396.80020	129.42291	-1091.97876				
80	0.790	-636.39136	1496.94324	-1057.60828							-538.20642	1397.28699	-1004.38605	-810.87762	1096.57202	-1330.72510				-548.56763	1286.01160	-1167.63611				-268.50473	1072.54565	-1234.10498				-234.99864	832.03229	-1245.12683	-875.94849	861.44049	-1264.89905	-490.99625	1015.46893	-1131.63000	-622.52332	999.56958	-1168.28113	-475.81033	913.11163	-1399.99048	-419.63181	468.19809	-1008.20435	-679.47266	62.77634	-1399.12622	-405.17062	123.35122	-1068.61340				
81	0.800	-638.68463	1494.20605	-1048.83899	-695.47241	1399.64185	-1244.69543				-540.19672	1395.11536	-996.80054	-814.52722	1094.65466	-1321.62524				-551.38684	1284.36243	-1160.73804				-271.56909	1070.44263	-1230.53931				-235.50450	831.46497	-1247.57080	-880.67566	860.88062	-1257.78381	-493.39529	1013.00696	-1126.00159	-624.86316	997.84705	-1165.82837	-477.72635	911.95825	-1392.56909	-425.06091	466.74179	-999.64691	-680.65350	62.82256	-1398.83997	-413.16071	118.25280	-1045.59436				
82	0.810	-640.82184	1491.42627	-1039.96570							-539.23138	1392.73071	-983.94928	-818.12030	1093.39758	-1313.98608				-554.44379	1283.38611	-1152.91345				-274.70410	1069.18018	-1225.42834				-240.74763	829.18469	-1241.03845	-885.66357	859.28790	-1248.89197	-496.77863	1011.51837	-1117.75635				-479.43100	910.95325	-1385.20447	-429.93149	465.67560	-992.07520				-422.43457	112.19119	-1020.78943				
83	0.820	-643.06976	1488.51672	-1030.64685	-701.46906	1395.80493	-1226.73596				-541.47192	1389.85156	-974.35828	-821.76727	1091.37830	-1304.64429				-556.14923	1280.97327	-1143.65552				-277.00003	1067.69800	-1221.72656				-242.28221	828.11237	-1242.20264	-890.30823	858.43121	-1241.48572	-498.52316	1009.59137	-1109.87537	-629.96729	995.11932	-1145.90283	-481.17679	909.86823	-1377.29028	-435.21091	465.14377	-984.69110	-681.63556	59.04950	-1400.12610	-429.72513	107.78599	-998.12720				
84	0.830	-645.22906	1485.66907	-1021.37384							-543.23755	1386.06445	-967.68982							-558.53723	1279.27747	-1136.01294				-280.07721	1065.66321	-1216.43262				-245.96837	827.65820	-1237.65918	-894.95575	857.48218	-1233.53699	-501.49655	1008.60858	-1100.27563	-632.16370	995.43964	-1136.75964	-482.74652	909.14911	-1370.34656	-438.93188	463.40338	-980.55249				-436.95499	102.37556	-973.73035				
85	0.840	-647.33777	1482.83459	-1011.72113							-544.39984	1384.09534	-961.05743							-561.68390	1277.18042	-1126.88257				-282.77567	1063.72046	-1211.54004	-828.42865	1088.73291	-1288.53503	-248.32770	824.58649	-1235.13159	-900.18915	856.03052	-1224.40430	-503.54071	1007.19836	-1093.13599	-635.33496	993.51422	-1132.93188	-484.48004	908.22168	-1362.67346	-442.36206	461.44934	-978.01660				-445.10681	98.32759	-949.61639				
86	0.850	-649.55359	1479.88892	-1002.15417							-546.47290	1381.59680	-950.90729				-709.79950	1390.66516	-1205.64160	-563.72363	1274.70447	-1119.33887				-286.20947	1062.43860	-1206.73718	-831.90881	1086.88855	-1279.23743	-252.09671	823.74817	-1231.53296	-904.79877	854.85895	-1216.26489	-507.08069	1005.78674	-1085.53015	-637.07690	989.48901	-1126.95239	-486.08185	907.10840	-1354.71338	-447.64783	458.81729	-970.74567				-452.26242	96.73364	-927.36841				
87	0.860										-548.16400	1377.49292	-942.19635				-712.05444	1388.30310	-1196.68848	-566.22266	1272.41016	-1110.57813				-288.18552	1059.65515	-1201.75854	-835.26703	1085.83032	-1271.67090	-254.11755	821.03699	-1227.43579	-909.45221	854.31787	-1208.66504	-508.37811	1004.21472	-1072.60413	-640.15558	989.41235	-1113.49780	-487.86896	905.71271	-1346.06409	-451.56641	455.19620	-966.22223				-462.01227	96.16113	-898.26196				
88	0.870				-404.77332	1398.66394	-1140.30322				-549.70313	1375.55176	-933.01257				-714.99500	1385.44824	-1188.18774	-569.08112	1270.82434	-1101.10205				-291.98486	1058.19202	-1193.22095	-838.93414	1083.51001	-1261.22412	-256.57541	820.17169	-1224.34314	-914.61523	852.19336	-1198.40491	-511.72128	1002.03094	-1064.28589	-641.28308	986.40417	-1104.66345	-489.65637	903.76654	-1336.47205	-456.48816	450.88318	-959.39417				-468.29648	98.60204	-876.55658				
